<?xml version="1.0" encoding="utf-8" standalone="no"?>
<!DOCTYPE svg PUBLIC "-//W3C//DTD SVG 1.1//EN"
  "http://www.w3.org/Graphics/SVG/1.1/DTD/svg11.dtd">
<!-- Created with matplotlib (http://matplotlib.org/) -->
<svg height="288pt" version="1.1" viewBox="0 0 432 288" width="432pt" xmlns="http://www.w3.org/2000/svg" xmlns:xlink="http://www.w3.org/1999/xlink">
 <defs>
  <style type="text/css">
*{stroke-linecap:butt;stroke-linejoin:round;}
  </style>
 </defs>
 <g id="figure_1">
  <g id="patch_1">
   <path d="M 0 288 
L 432 288 
L 432 0 
L 0 0 
z
" style="fill:#ffffff;"/>
  </g>
  <g id="axes_1">
   <g id="patch_2">
    <path d="M 44.425 223.7 
L 417.7 223.7 
L 417.7 14.3 
L 44.425 14.3 
z
" style="fill:#ffffff;"/>
   </g>
   <g id="patch_3">
    <path clip-path="url(#pd42100257e)" d="M 51.090625 223.7 
L 64.421875 223.7 
L 64.421875 218.714286 
L 51.090625 218.714286 
z
" style="fill:#1f77b4;"/>
   </g>
   <g id="patch_4">
    <path clip-path="url(#pd42100257e)" d="M 77.753125 223.7 
L 91.084375 223.7 
L 91.084375 213.728571 
L 77.753125 213.728571 
z
" style="fill:#1f77b4;"/>
   </g>
   <g id="patch_5">
    <path clip-path="url(#pd42100257e)" d="M 104.415625 223.7 
L 117.746875 223.7 
L 117.746875 221.207143 
L 104.415625 221.207143 
z
" style="fill:#1f77b4;"/>
   </g>
   <g id="patch_6">
    <path clip-path="url(#pd42100257e)" d="M 131.078125 223.7 
L 144.409375 223.7 
L 144.409375 221.207143 
L 131.078125 221.207143 
z
" style="fill:#1f77b4;"/>
   </g>
   <g id="patch_7">
    <path clip-path="url(#pd42100257e)" d="M 157.740625 223.7 
L 171.071875 223.7 
L 171.071875 211.235714 
L 157.740625 211.235714 
z
" style="fill:#1f77b4;"/>
   </g>
   <g id="patch_8">
    <path clip-path="url(#pd42100257e)" d="M 184.403125 223.7 
L 197.734375 223.7 
L 197.734375 203.757143 
L 184.403125 203.757143 
z
" style="fill:#1f77b4;"/>
   </g>
   <g id="patch_9">
    <path clip-path="url(#pd42100257e)" d="M 211.065625 223.7 
L 224.396875 223.7 
L 224.396875 213.728571 
L 211.065625 213.728571 
z
" style="fill:#1f77b4;"/>
   </g>
   <g id="patch_10">
    <path clip-path="url(#pd42100257e)" d="M 237.728125 223.7 
L 251.059375 223.7 
L 251.059375 208.742857 
L 237.728125 208.742857 
z
" style="fill:#1f77b4;"/>
   </g>
   <g id="patch_11">
    <path clip-path="url(#pd42100257e)" d="M 264.390625 223.7 
L 277.721875 223.7 
L 277.721875 218.714286 
L 264.390625 218.714286 
z
" style="fill:#1f77b4;"/>
   </g>
   <g id="patch_12">
    <path clip-path="url(#pd42100257e)" d="M 291.053125 223.7 
L 304.384375 223.7 
L 304.384375 216.221429 
L 291.053125 216.221429 
z
" style="fill:#1f77b4;"/>
   </g>
   <g id="patch_13">
    <path clip-path="url(#pd42100257e)" d="M 317.715625 223.7 
L 331.046875 223.7 
L 331.046875 203.757143 
L 317.715625 203.757143 
z
" style="fill:#1f77b4;"/>
   </g>
   <g id="patch_14">
    <path clip-path="url(#pd42100257e)" d="M 344.378125 223.7 
L 357.709375 223.7 
L 357.709375 191.292857 
L 344.378125 191.292857 
z
" style="fill:#1f77b4;"/>
   </g>
   <g id="patch_15">
    <path clip-path="url(#pd42100257e)" d="M 371.040625 223.7 
L 384.371875 223.7 
L 384.371875 71.635714 
L 371.040625 71.635714 
z
" style="fill:#1f77b4;"/>
   </g>
   <g id="patch_16">
    <path clip-path="url(#pd42100257e)" d="M 397.703125 223.7 
L 411.034375 223.7 
L 411.034375 36.735714 
L 397.703125 36.735714 
z
" style="fill:#1f77b4;"/>
   </g>
   <g id="patch_17">
    <path clip-path="url(#pd42100257e)" d="M 51.090625 223.7 
L 64.421875 223.7 
L 64.421875 223.7 
L 51.090625 223.7 
z
" style="fill:#ff7f0e;"/>
   </g>
   <g id="patch_18">
    <path clip-path="url(#pd42100257e)" d="M 77.753125 213.728571 
L 91.084375 213.728571 
L 91.084375 211.235714 
L 77.753125 211.235714 
z
" style="fill:#ff7f0e;"/>
   </g>
   <g id="patch_19">
    <path clip-path="url(#pd42100257e)" d="M 104.415625 223.7 
L 117.746875 223.7 
L 117.746875 223.7 
L 104.415625 223.7 
z
" style="fill:#ff7f0e;"/>
   </g>
   <g id="patch_20">
    <path clip-path="url(#pd42100257e)" d="M 131.078125 223.7 
L 144.409375 223.7 
L 144.409375 223.7 
L 131.078125 223.7 
z
" style="fill:#ff7f0e;"/>
   </g>
   <g id="patch_21">
    <path clip-path="url(#pd42100257e)" d="M 157.740625 211.235714 
L 171.071875 211.235714 
L 171.071875 206.25 
L 157.740625 206.25 
z
" style="fill:#ff7f0e;"/>
   </g>
   <g id="patch_22">
    <path clip-path="url(#pd42100257e)" d="M 184.403125 203.757143 
L 197.734375 203.757143 
L 197.734375 201.264286 
L 184.403125 201.264286 
z
" style="fill:#ff7f0e;"/>
   </g>
   <g id="patch_23">
    <path clip-path="url(#pd42100257e)" d="M 211.065625 223.7 
L 224.396875 223.7 
L 224.396875 223.7 
L 211.065625 223.7 
z
" style="fill:#ff7f0e;"/>
   </g>
   <g id="patch_24">
    <path clip-path="url(#pd42100257e)" d="M 237.728125 223.7 
L 251.059375 223.7 
L 251.059375 223.7 
L 237.728125 223.7 
z
" style="fill:#ff7f0e;"/>
   </g>
   <g id="patch_25">
    <path clip-path="url(#pd42100257e)" d="M 264.390625 223.7 
L 277.721875 223.7 
L 277.721875 223.7 
L 264.390625 223.7 
z
" style="fill:#ff7f0e;"/>
   </g>
   <g id="patch_26">
    <path clip-path="url(#pd42100257e)" d="M 291.053125 216.221429 
L 304.384375 216.221429 
L 304.384375 213.728571 
L 291.053125 213.728571 
z
" style="fill:#ff7f0e;"/>
   </g>
   <g id="patch_27">
    <path clip-path="url(#pd42100257e)" d="M 317.715625 203.757143 
L 331.046875 203.757143 
L 331.046875 201.264286 
L 317.715625 201.264286 
z
" style="fill:#ff7f0e;"/>
   </g>
   <g id="patch_28">
    <path clip-path="url(#pd42100257e)" d="M 344.378125 191.292857 
L 357.709375 191.292857 
L 357.709375 188.8 
L 344.378125 188.8 
z
" style="fill:#ff7f0e;"/>
   </g>
   <g id="patch_29">
    <path clip-path="url(#pd42100257e)" d="M 371.040625 71.635714 
L 384.371875 71.635714 
L 384.371875 66.65 
L 371.040625 66.65 
z
" style="fill:#ff7f0e;"/>
   </g>
   <g id="patch_30">
    <path clip-path="url(#pd42100257e)" d="M 397.703125 36.735714 
L 411.034375 36.735714 
L 411.034375 24.271429 
L 397.703125 24.271429 
z
" style="fill:#ff7f0e;"/>
   </g>
   <g id="matplotlib.axis_1">
    <g id="xtick_1">
     <g id="line2d_1">
      <defs>
       <path d="M 0 0 
L 0 3.5 
" id="m1da576604a" style="stroke:#000000;stroke-width:0.8;"/>
      </defs>
      <g>
       <use style="stroke:#000000;stroke-width:0.8;" x="57.75625" xlink:href="#m1da576604a" y="223.7"/>
      </g>
     </g>
     <g id="text_1">
      <!-- 19F_KAN -->
      <defs>
       <path d="M 12.40625 8.296875 
L 28.515625 8.296875 
L 28.515625 63.921875 
L 10.984375 60.40625 
L 10.984375 69.390625 
L 28.421875 72.90625 
L 38.28125 72.90625 
L 38.28125 8.296875 
L 54.390625 8.296875 
L 54.390625 0 
L 12.40625 0 
z
" id="DejaVuSans-31"/>
       <path d="M 10.984375 1.515625 
L 10.984375 10.5 
Q 14.703125 8.734375 18.5 7.8125 
Q 22.3125 6.890625 25.984375 6.890625 
Q 35.75 6.890625 40.890625 13.453125 
Q 46.046875 20.015625 46.78125 33.40625 
Q 43.953125 29.203125 39.59375 26.953125 
Q 35.25 24.703125 29.984375 24.703125 
Q 19.046875 24.703125 12.671875 31.3125 
Q 6.296875 37.9375 6.296875 49.421875 
Q 6.296875 60.640625 12.9375 67.421875 
Q 19.578125 74.21875 30.609375 74.21875 
Q 43.265625 74.21875 49.921875 64.515625 
Q 56.59375 54.828125 56.59375 36.375 
Q 56.59375 19.140625 48.40625 8.859375 
Q 40.234375 -1.421875 26.421875 -1.421875 
Q 22.703125 -1.421875 18.890625 -0.6875 
Q 15.09375 0.046875 10.984375 1.515625 
z
M 30.609375 32.421875 
Q 37.25 32.421875 41.125 36.953125 
Q 45.015625 41.5 45.015625 49.421875 
Q 45.015625 57.28125 41.125 61.84375 
Q 37.25 66.40625 30.609375 66.40625 
Q 23.96875 66.40625 20.09375 61.84375 
Q 16.21875 57.28125 16.21875 49.421875 
Q 16.21875 41.5 20.09375 36.953125 
Q 23.96875 32.421875 30.609375 32.421875 
z
" id="DejaVuSans-39"/>
       <path d="M 9.8125 72.90625 
L 51.703125 72.90625 
L 51.703125 64.59375 
L 19.671875 64.59375 
L 19.671875 43.109375 
L 48.578125 43.109375 
L 48.578125 34.8125 
L 19.671875 34.8125 
L 19.671875 0 
L 9.8125 0 
z
" id="DejaVuSans-46"/>
       <path d="M 50.984375 -16.609375 
L 50.984375 -23.578125 
L -0.984375 -23.578125 
L -0.984375 -16.609375 
z
" id="DejaVuSans-5f"/>
       <path d="M 9.8125 72.90625 
L 19.671875 72.90625 
L 19.671875 42.09375 
L 52.390625 72.90625 
L 65.09375 72.90625 
L 28.90625 38.921875 
L 67.671875 0 
L 54.6875 0 
L 19.671875 35.109375 
L 19.671875 0 
L 9.8125 0 
z
" id="DejaVuSans-4b"/>
       <path d="M 34.1875 63.1875 
L 20.796875 26.90625 
L 47.609375 26.90625 
z
M 28.609375 72.90625 
L 39.796875 72.90625 
L 67.578125 0 
L 57.328125 0 
L 50.6875 18.703125 
L 17.828125 18.703125 
L 11.1875 0 
L 0.78125 0 
z
" id="DejaVuSans-41"/>
       <path d="M 9.8125 72.90625 
L 23.09375 72.90625 
L 55.421875 11.921875 
L 55.421875 72.90625 
L 64.984375 72.90625 
L 64.984375 0 
L 51.703125 0 
L 19.390625 60.984375 
L 19.390625 0 
L 9.8125 0 
z
" id="DejaVuSans-4e"/>
      </defs>
      <g transform="translate(60.288281 275.054688)rotate(-90)scale(0.1 -0.1)">
       <use xlink:href="#DejaVuSans-31"/>
       <use x="63.623047" xlink:href="#DejaVuSans-39"/>
       <use x="127.246094" xlink:href="#DejaVuSans-46"/>
       <use x="184.765625" xlink:href="#DejaVuSans-5f"/>
       <use x="234.765625" xlink:href="#DejaVuSans-4b"/>
       <use x="300.326172" xlink:href="#DejaVuSans-41"/>
       <use x="368.734375" xlink:href="#DejaVuSans-4e"/>
      </g>
     </g>
    </g>
    <g id="xtick_2">
     <g id="line2d_2">
      <g>
       <use style="stroke:#000000;stroke-width:0.8;" x="84.41875" xlink:href="#m1da576604a" y="223.7"/>
      </g>
     </g>
     <g id="text_2">
      <!-- 19F_LVX -->
      <defs>
       <path d="M 9.8125 72.90625 
L 19.671875 72.90625 
L 19.671875 8.296875 
L 55.171875 8.296875 
L 55.171875 0 
L 9.8125 0 
z
" id="DejaVuSans-4c"/>
       <path d="M 28.609375 0 
L 0.78125 72.90625 
L 11.078125 72.90625 
L 34.1875 11.53125 
L 57.328125 72.90625 
L 67.578125 72.90625 
L 39.796875 0 
z
" id="DejaVuSans-56"/>
       <path d="M 6.296875 72.90625 
L 16.890625 72.90625 
L 35.015625 45.796875 
L 53.21875 72.90625 
L 63.8125 72.90625 
L 40.375 37.890625 
L 65.375 0 
L 54.78125 0 
L 34.28125 31 
L 13.625 0 
L 2.984375 0 
L 29 38.921875 
z
" id="DejaVuSans-58"/>
      </defs>
      <g transform="translate(86.950781 273.421875)rotate(-90)scale(0.1 -0.1)">
       <use xlink:href="#DejaVuSans-31"/>
       <use x="63.623047" xlink:href="#DejaVuSans-39"/>
       <use x="127.246094" xlink:href="#DejaVuSans-46"/>
       <use x="184.765625" xlink:href="#DejaVuSans-5f"/>
       <use x="234.765625" xlink:href="#DejaVuSans-4c"/>
       <use x="290.306641" xlink:href="#DejaVuSans-56"/>
       <use x="358.714844" xlink:href="#DejaVuSans-58"/>
      </g>
     </g>
    </g>
    <g id="xtick_3">
     <g id="line2d_3">
      <g>
       <use style="stroke:#000000;stroke-width:0.8;" x="111.08125" xlink:href="#m1da576604a" y="223.7"/>
      </g>
     </g>
     <g id="text_3">
      <!-- 19F_RIF -->
      <defs>
       <path d="M 44.390625 34.1875 
Q 47.5625 33.109375 50.5625 29.59375 
Q 53.5625 26.078125 56.59375 19.921875 
L 66.609375 0 
L 56 0 
L 46.6875 18.703125 
Q 43.0625 26.03125 39.671875 28.421875 
Q 36.28125 30.8125 30.421875 30.8125 
L 19.671875 30.8125 
L 19.671875 0 
L 9.8125 0 
L 9.8125 72.90625 
L 32.078125 72.90625 
Q 44.578125 72.90625 50.734375 67.671875 
Q 56.890625 62.453125 56.890625 51.90625 
Q 56.890625 45.015625 53.6875 40.46875 
Q 50.484375 35.9375 44.390625 34.1875 
z
M 19.671875 64.796875 
L 19.671875 38.921875 
L 32.078125 38.921875 
Q 39.203125 38.921875 42.84375 42.21875 
Q 46.484375 45.515625 46.484375 51.90625 
Q 46.484375 58.296875 42.84375 61.546875 
Q 39.203125 64.796875 32.078125 64.796875 
z
" id="DejaVuSans-52"/>
       <path d="M 9.8125 72.90625 
L 19.671875 72.90625 
L 19.671875 0 
L 9.8125 0 
z
" id="DejaVuSans-49"/>
      </defs>
      <g transform="translate(113.613281 269.826563)rotate(-90)scale(0.1 -0.1)">
       <use xlink:href="#DejaVuSans-31"/>
       <use x="63.623047" xlink:href="#DejaVuSans-39"/>
       <use x="127.246094" xlink:href="#DejaVuSans-46"/>
       <use x="184.765625" xlink:href="#DejaVuSans-5f"/>
       <use x="234.765625" xlink:href="#DejaVuSans-52"/>
       <use x="304.248047" xlink:href="#DejaVuSans-49"/>
       <use x="333.740234" xlink:href="#DejaVuSans-46"/>
      </g>
     </g>
    </g>
    <g id="xtick_4">
     <g id="line2d_4">
      <g>
       <use style="stroke:#000000;stroke-width:0.8;" x="137.74375" xlink:href="#m1da576604a" y="223.7"/>
      </g>
     </g>
     <g id="text_4">
      <!-- 19F_VNC -->
      <defs>
       <path d="M 64.40625 67.28125 
L 64.40625 56.890625 
Q 59.421875 61.53125 53.78125 63.8125 
Q 48.140625 66.109375 41.796875 66.109375 
Q 29.296875 66.109375 22.65625 58.46875 
Q 16.015625 50.828125 16.015625 36.375 
Q 16.015625 21.96875 22.65625 14.328125 
Q 29.296875 6.6875 41.796875 6.6875 
Q 48.140625 6.6875 53.78125 8.984375 
Q 59.421875 11.28125 64.40625 15.921875 
L 64.40625 5.609375 
Q 59.234375 2.09375 53.4375 0.328125 
Q 47.65625 -1.421875 41.21875 -1.421875 
Q 24.65625 -1.421875 15.125 8.703125 
Q 5.609375 18.84375 5.609375 36.375 
Q 5.609375 53.953125 15.125 64.078125 
Q 24.65625 74.21875 41.21875 74.21875 
Q 47.75 74.21875 53.53125 72.484375 
Q 59.328125 70.75 64.40625 67.28125 
z
" id="DejaVuSans-43"/>
      </defs>
      <g transform="translate(140.275781 275.48125)rotate(-90)scale(0.1 -0.1)">
       <use xlink:href="#DejaVuSans-31"/>
       <use x="63.623047" xlink:href="#DejaVuSans-39"/>
       <use x="127.246094" xlink:href="#DejaVuSans-46"/>
       <use x="184.765625" xlink:href="#DejaVuSans-5f"/>
       <use x="234.765625" xlink:href="#DejaVuSans-56"/>
       <use x="303.173828" xlink:href="#DejaVuSans-4e"/>
       <use x="377.978516" xlink:href="#DejaVuSans-43"/>
      </g>
     </g>
    </g>
    <g id="xtick_5">
     <g id="line2d_5">
      <g>
       <use style="stroke:#000000;stroke-width:0.8;" x="164.40625" xlink:href="#m1da576604a" y="223.7"/>
      </g>
     </g>
     <g id="text_5">
      <!-- 19F_CIP -->
      <defs>
       <path d="M 19.671875 64.796875 
L 19.671875 37.40625 
L 32.078125 37.40625 
Q 38.96875 37.40625 42.71875 40.96875 
Q 46.484375 44.53125 46.484375 51.125 
Q 46.484375 57.671875 42.71875 61.234375 
Q 38.96875 64.796875 32.078125 64.796875 
z
M 9.8125 72.90625 
L 32.078125 72.90625 
Q 44.34375 72.90625 50.609375 67.359375 
Q 56.890625 61.8125 56.890625 51.125 
Q 56.890625 40.328125 50.609375 34.8125 
Q 44.34375 29.296875 32.078125 29.296875 
L 19.671875 29.296875 
L 19.671875 0 
L 9.8125 0 
z
" id="DejaVuSans-50"/>
      </defs>
      <g transform="translate(166.938281 270.139063)rotate(-90)scale(0.1 -0.1)">
       <use xlink:href="#DejaVuSans-31"/>
       <use x="63.623047" xlink:href="#DejaVuSans-39"/>
       <use x="127.246094" xlink:href="#DejaVuSans-46"/>
       <use x="184.765625" xlink:href="#DejaVuSans-5f"/>
       <use x="234.765625" xlink:href="#DejaVuSans-43"/>
       <use x="304.589844" xlink:href="#DejaVuSans-49"/>
       <use x="334.082031" xlink:href="#DejaVuSans-50"/>
      </g>
     </g>
    </g>
    <g id="xtick_6">
     <g id="line2d_6">
      <g>
       <use style="stroke:#000000;stroke-width:0.8;" x="191.06875" xlink:href="#m1da576604a" y="223.7"/>
      </g>
     </g>
     <g id="text_6">
      <!-- T4_KAN -->
      <defs>
       <path d="M -0.296875 72.90625 
L 61.375 72.90625 
L 61.375 64.59375 
L 35.5 64.59375 
L 35.5 0 
L 25.59375 0 
L 25.59375 64.59375 
L -0.296875 64.59375 
z
" id="DejaVuSans-54"/>
       <path d="M 37.796875 64.3125 
L 12.890625 25.390625 
L 37.796875 25.390625 
z
M 35.203125 72.90625 
L 47.609375 72.90625 
L 47.609375 25.390625 
L 58.015625 25.390625 
L 58.015625 17.1875 
L 47.609375 17.1875 
L 47.609375 0 
L 37.796875 0 
L 37.796875 17.1875 
L 4.890625 17.1875 
L 4.890625 26.703125 
z
" id="DejaVuSans-34"/>
      </defs>
      <g transform="translate(193.55 269.048437)rotate(-90)scale(0.1 -0.1)">
       <use xlink:href="#DejaVuSans-54"/>
       <use x="61.083984" xlink:href="#DejaVuSans-34"/>
       <use x="124.707031" xlink:href="#DejaVuSans-5f"/>
       <use x="174.707031" xlink:href="#DejaVuSans-4b"/>
       <use x="240.267578" xlink:href="#DejaVuSans-41"/>
       <use x="308.675781" xlink:href="#DejaVuSans-4e"/>
      </g>
     </g>
    </g>
    <g id="xtick_7">
     <g id="line2d_7">
      <g>
       <use style="stroke:#000000;stroke-width:0.8;" x="217.73125" xlink:href="#m1da576604a" y="223.7"/>
      </g>
     </g>
     <g id="text_7">
      <!-- T4_LVX -->
      <g transform="translate(220.2125 267.415625)rotate(-90)scale(0.1 -0.1)">
       <use xlink:href="#DejaVuSans-54"/>
       <use x="61.083984" xlink:href="#DejaVuSans-34"/>
       <use x="124.707031" xlink:href="#DejaVuSans-5f"/>
       <use x="174.707031" xlink:href="#DejaVuSans-4c"/>
       <use x="230.248047" xlink:href="#DejaVuSans-56"/>
       <use x="298.65625" xlink:href="#DejaVuSans-58"/>
      </g>
     </g>
    </g>
    <g id="xtick_8">
     <g id="line2d_8">
      <g>
       <use style="stroke:#000000;stroke-width:0.8;" x="244.39375" xlink:href="#m1da576604a" y="223.7"/>
      </g>
     </g>
     <g id="text_8">
      <!-- T4_PEN -->
      <defs>
       <path d="M 9.8125 72.90625 
L 55.90625 72.90625 
L 55.90625 64.59375 
L 19.671875 64.59375 
L 19.671875 43.015625 
L 54.390625 43.015625 
L 54.390625 34.71875 
L 19.671875 34.71875 
L 19.671875 8.296875 
L 56.78125 8.296875 
L 56.78125 0 
L 9.8125 0 
z
" id="DejaVuSans-45"/>
      </defs>
      <g transform="translate(246.875 268)rotate(-90)scale(0.1 -0.1)">
       <use xlink:href="#DejaVuSans-54"/>
       <use x="61.083984" xlink:href="#DejaVuSans-34"/>
       <use x="124.707031" xlink:href="#DejaVuSans-5f"/>
       <use x="174.707031" xlink:href="#DejaVuSans-50"/>
       <use x="235.009766" xlink:href="#DejaVuSans-45"/>
       <use x="298.193359" xlink:href="#DejaVuSans-4e"/>
      </g>
     </g>
    </g>
    <g id="xtick_9">
     <g id="line2d_9">
      <g>
       <use style="stroke:#000000;stroke-width:0.8;" x="271.05625" xlink:href="#m1da576604a" y="223.7"/>
      </g>
     </g>
     <g id="text_9">
      <!-- T4_RIF -->
      <g transform="translate(273.5375 263.820312)rotate(-90)scale(0.1 -0.1)">
       <use xlink:href="#DejaVuSans-54"/>
       <use x="61.083984" xlink:href="#DejaVuSans-34"/>
       <use x="124.707031" xlink:href="#DejaVuSans-5f"/>
       <use x="174.707031" xlink:href="#DejaVuSans-52"/>
       <use x="244.189453" xlink:href="#DejaVuSans-49"/>
       <use x="273.681641" xlink:href="#DejaVuSans-46"/>
      </g>
     </g>
    </g>
    <g id="xtick_10">
     <g id="line2d_10">
      <g>
       <use style="stroke:#000000;stroke-width:0.8;" x="297.71875" xlink:href="#m1da576604a" y="223.7"/>
      </g>
     </g>
     <g id="text_10">
      <!-- T4_VNC -->
      <g transform="translate(300.250781 269.475)rotate(-90)scale(0.1 -0.1)">
       <use xlink:href="#DejaVuSans-54"/>
       <use x="61.083984" xlink:href="#DejaVuSans-34"/>
       <use x="124.707031" xlink:href="#DejaVuSans-5f"/>
       <use x="174.707031" xlink:href="#DejaVuSans-56"/>
       <use x="243.115234" xlink:href="#DejaVuSans-4e"/>
       <use x="317.919922" xlink:href="#DejaVuSans-43"/>
      </g>
     </g>
    </g>
    <g id="xtick_11">
     <g id="line2d_11">
      <g>
       <use style="stroke:#000000;stroke-width:0.8;" x="324.38125" xlink:href="#m1da576604a" y="223.7"/>
      </g>
     </g>
     <g id="text_11">
      <!-- T4_CIP -->
      <g transform="translate(326.913281 264.132812)rotate(-90)scale(0.1 -0.1)">
       <use xlink:href="#DejaVuSans-54"/>
       <use x="61.083984" xlink:href="#DejaVuSans-34"/>
       <use x="124.707031" xlink:href="#DejaVuSans-5f"/>
       <use x="174.707031" xlink:href="#DejaVuSans-43"/>
       <use x="244.53125" xlink:href="#DejaVuSans-49"/>
       <use x="274.023438" xlink:href="#DejaVuSans-50"/>
      </g>
     </g>
    </g>
    <g id="xtick_12">
     <g id="line2d_12">
      <g>
       <use style="stroke:#000000;stroke-width:0.8;" x="351.04375" xlink:href="#m1da576604a" y="223.7"/>
      </g>
     </g>
     <g id="text_12">
      <!-- T4_CEF -->
      <g transform="translate(353.575781 267.223437)rotate(-90)scale(0.1 -0.1)">
       <use xlink:href="#DejaVuSans-54"/>
       <use x="61.083984" xlink:href="#DejaVuSans-34"/>
       <use x="124.707031" xlink:href="#DejaVuSans-5f"/>
       <use x="174.707031" xlink:href="#DejaVuSans-43"/>
       <use x="244.53125" xlink:href="#DejaVuSans-45"/>
       <use x="307.714844" xlink:href="#DejaVuSans-46"/>
      </g>
     </g>
    </g>
    <g id="xtick_13">
     <g id="line2d_13">
      <g>
       <use style="stroke:#000000;stroke-width:0.8;" x="377.70625" xlink:href="#m1da576604a" y="223.7"/>
      </g>
     </g>
     <g id="text_13">
      <!-- D39_URA -->
      <defs>
       <path d="M 19.671875 64.796875 
L 19.671875 8.109375 
L 31.59375 8.109375 
Q 46.6875 8.109375 53.6875 14.9375 
Q 60.6875 21.78125 60.6875 36.53125 
Q 60.6875 51.171875 53.6875 57.984375 
Q 46.6875 64.796875 31.59375 64.796875 
z
M 9.8125 72.90625 
L 30.078125 72.90625 
Q 51.265625 72.90625 61.171875 64.09375 
Q 71.09375 55.28125 71.09375 36.53125 
Q 71.09375 17.671875 61.125 8.828125 
Q 51.171875 0 30.078125 0 
L 9.8125 0 
z
" id="DejaVuSans-44"/>
       <path d="M 40.578125 39.3125 
Q 47.65625 37.796875 51.625 33 
Q 55.609375 28.21875 55.609375 21.1875 
Q 55.609375 10.40625 48.1875 4.484375 
Q 40.765625 -1.421875 27.09375 -1.421875 
Q 22.515625 -1.421875 17.65625 -0.515625 
Q 12.796875 0.390625 7.625 2.203125 
L 7.625 11.71875 
Q 11.71875 9.328125 16.59375 8.109375 
Q 21.484375 6.890625 26.8125 6.890625 
Q 36.078125 6.890625 40.9375 10.546875 
Q 45.796875 14.203125 45.796875 21.1875 
Q 45.796875 27.640625 41.28125 31.265625 
Q 36.765625 34.90625 28.71875 34.90625 
L 20.21875 34.90625 
L 20.21875 43.015625 
L 29.109375 43.015625 
Q 36.375 43.015625 40.234375 45.921875 
Q 44.09375 48.828125 44.09375 54.296875 
Q 44.09375 59.90625 40.109375 62.90625 
Q 36.140625 65.921875 28.71875 65.921875 
Q 24.65625 65.921875 20.015625 65.03125 
Q 15.375 64.15625 9.8125 62.3125 
L 9.8125 71.09375 
Q 15.4375 72.65625 20.34375 73.4375 
Q 25.25 74.21875 29.59375 74.21875 
Q 40.828125 74.21875 47.359375 69.109375 
Q 53.90625 64.015625 53.90625 55.328125 
Q 53.90625 49.265625 50.4375 45.09375 
Q 46.96875 40.921875 40.578125 39.3125 
z
" id="DejaVuSans-33"/>
       <path d="M 8.6875 72.90625 
L 18.609375 72.90625 
L 18.609375 28.609375 
Q 18.609375 16.890625 22.84375 11.734375 
Q 27.09375 6.59375 36.625 6.59375 
Q 46.09375 6.59375 50.34375 11.734375 
Q 54.59375 16.890625 54.59375 28.609375 
L 54.59375 72.90625 
L 64.5 72.90625 
L 64.5 27.390625 
Q 64.5 13.140625 57.4375 5.859375 
Q 50.390625 -1.421875 36.625 -1.421875 
Q 22.796875 -1.421875 15.734375 5.859375 
Q 8.6875 13.140625 8.6875 27.390625 
z
" id="DejaVuSans-55"/>
      </defs>
      <g transform="translate(380.238281 277.226562)rotate(-90)scale(0.1 -0.1)">
       <use xlink:href="#DejaVuSans-44"/>
       <use x="77.001953" xlink:href="#DejaVuSans-33"/>
       <use x="140.625" xlink:href="#DejaVuSans-39"/>
       <use x="204.248047" xlink:href="#DejaVuSans-5f"/>
       <use x="254.248047" xlink:href="#DejaVuSans-55"/>
       <use x="327.441406" xlink:href="#DejaVuSans-52"/>
       <use x="396.861328" xlink:href="#DejaVuSans-41"/>
      </g>
     </g>
    </g>
    <g id="xtick_14">
     <g id="line2d_14">
      <g>
       <use style="stroke:#000000;stroke-width:0.8;" x="404.36875" xlink:href="#m1da576604a" y="223.7"/>
      </g>
     </g>
     <g id="text_14">
      <!-- D39_VAL -->
      <g transform="translate(406.900781 275.36875)rotate(-90)scale(0.1 -0.1)">
       <use xlink:href="#DejaVuSans-44"/>
       <use x="77.001953" xlink:href="#DejaVuSans-33"/>
       <use x="140.625" xlink:href="#DejaVuSans-39"/>
       <use x="204.248047" xlink:href="#DejaVuSans-5f"/>
       <use x="254.248047" xlink:href="#DejaVuSans-56"/>
       <use x="322.5625" xlink:href="#DejaVuSans-41"/>
       <use x="390.970703" xlink:href="#DejaVuSans-4c"/>
      </g>
     </g>
    </g>
   </g>
   <g id="matplotlib.axis_2">
    <g id="ytick_1">
     <g id="line2d_15">
      <defs>
       <path d="M 0 0 
L -3.5 0 
" id="mb14d047022" style="stroke:#000000;stroke-width:0.8;"/>
      </defs>
      <g>
       <use style="stroke:#000000;stroke-width:0.8;" x="44.425" xlink:href="#mb14d047022" y="223.7"/>
      </g>
     </g>
     <g id="text_15">
      <!-- 0 -->
      <defs>
       <path d="M 31.78125 66.40625 
Q 24.171875 66.40625 20.328125 58.90625 
Q 16.5 51.421875 16.5 36.375 
Q 16.5 21.390625 20.328125 13.890625 
Q 24.171875 6.390625 31.78125 6.390625 
Q 39.453125 6.390625 43.28125 13.890625 
Q 47.125 21.390625 47.125 36.375 
Q 47.125 51.421875 43.28125 58.90625 
Q 39.453125 66.40625 31.78125 66.40625 
z
M 31.78125 74.21875 
Q 44.046875 74.21875 50.515625 64.515625 
Q 56.984375 54.828125 56.984375 36.375 
Q 56.984375 17.96875 50.515625 8.265625 
Q 44.046875 -1.421875 31.78125 -1.421875 
Q 19.53125 -1.421875 13.0625 8.265625 
Q 6.59375 17.96875 6.59375 36.375 
Q 6.59375 54.828125 13.0625 64.515625 
Q 19.53125 74.21875 31.78125 74.21875 
z
" id="DejaVuSans-30"/>
      </defs>
      <g transform="translate(31.0625 227.499219)scale(0.1 -0.1)">
       <use xlink:href="#DejaVuSans-30"/>
      </g>
     </g>
    </g>
    <g id="ytick_2">
     <g id="line2d_16">
      <g>
       <use style="stroke:#000000;stroke-width:0.8;" x="44.425" xlink:href="#mb14d047022" y="198.771429"/>
      </g>
     </g>
     <g id="text_16">
      <!-- 10 -->
      <g transform="translate(24.7 202.570647)scale(0.1 -0.1)">
       <use xlink:href="#DejaVuSans-31"/>
       <use x="63.623047" xlink:href="#DejaVuSans-30"/>
      </g>
     </g>
    </g>
    <g id="ytick_3">
     <g id="line2d_17">
      <g>
       <use style="stroke:#000000;stroke-width:0.8;" x="44.425" xlink:href="#mb14d047022" y="173.842857"/>
      </g>
     </g>
     <g id="text_17">
      <!-- 20 -->
      <defs>
       <path d="M 19.1875 8.296875 
L 53.609375 8.296875 
L 53.609375 0 
L 7.328125 0 
L 7.328125 8.296875 
Q 12.9375 14.109375 22.625 23.890625 
Q 32.328125 33.6875 34.8125 36.53125 
Q 39.546875 41.84375 41.421875 45.53125 
Q 43.3125 49.21875 43.3125 52.78125 
Q 43.3125 58.59375 39.234375 62.25 
Q 35.15625 65.921875 28.609375 65.921875 
Q 23.96875 65.921875 18.8125 64.3125 
Q 13.671875 62.703125 7.8125 59.421875 
L 7.8125 69.390625 
Q 13.765625 71.78125 18.9375 73 
Q 24.125 74.21875 28.421875 74.21875 
Q 39.75 74.21875 46.484375 68.546875 
Q 53.21875 62.890625 53.21875 53.421875 
Q 53.21875 48.921875 51.53125 44.890625 
Q 49.859375 40.875 45.40625 35.40625 
Q 44.1875 33.984375 37.640625 27.21875 
Q 31.109375 20.453125 19.1875 8.296875 
z
" id="DejaVuSans-32"/>
      </defs>
      <g transform="translate(24.7 177.642076)scale(0.1 -0.1)">
       <use xlink:href="#DejaVuSans-32"/>
       <use x="63.623047" xlink:href="#DejaVuSans-30"/>
      </g>
     </g>
    </g>
    <g id="ytick_4">
     <g id="line2d_18">
      <g>
       <use style="stroke:#000000;stroke-width:0.8;" x="44.425" xlink:href="#mb14d047022" y="148.914286"/>
      </g>
     </g>
     <g id="text_18">
      <!-- 30 -->
      <g transform="translate(24.7 152.713504)scale(0.1 -0.1)">
       <use xlink:href="#DejaVuSans-33"/>
       <use x="63.623047" xlink:href="#DejaVuSans-30"/>
      </g>
     </g>
    </g>
    <g id="ytick_5">
     <g id="line2d_19">
      <g>
       <use style="stroke:#000000;stroke-width:0.8;" x="44.425" xlink:href="#mb14d047022" y="123.985714"/>
      </g>
     </g>
     <g id="text_19">
      <!-- 40 -->
      <g transform="translate(24.7 127.784933)scale(0.1 -0.1)">
       <use xlink:href="#DejaVuSans-34"/>
       <use x="63.623047" xlink:href="#DejaVuSans-30"/>
      </g>
     </g>
    </g>
    <g id="ytick_6">
     <g id="line2d_20">
      <g>
       <use style="stroke:#000000;stroke-width:0.8;" x="44.425" xlink:href="#mb14d047022" y="99.057143"/>
      </g>
     </g>
     <g id="text_20">
      <!-- 50 -->
      <defs>
       <path d="M 10.796875 72.90625 
L 49.515625 72.90625 
L 49.515625 64.59375 
L 19.828125 64.59375 
L 19.828125 46.734375 
Q 21.96875 47.46875 24.109375 47.828125 
Q 26.265625 48.1875 28.421875 48.1875 
Q 40.625 48.1875 47.75 41.5 
Q 54.890625 34.8125 54.890625 23.390625 
Q 54.890625 11.625 47.5625 5.09375 
Q 40.234375 -1.421875 26.90625 -1.421875 
Q 22.3125 -1.421875 17.546875 -0.640625 
Q 12.796875 0.140625 7.71875 1.703125 
L 7.71875 11.625 
Q 12.109375 9.234375 16.796875 8.0625 
Q 21.484375 6.890625 26.703125 6.890625 
Q 35.15625 6.890625 40.078125 11.328125 
Q 45.015625 15.765625 45.015625 23.390625 
Q 45.015625 31 40.078125 35.4375 
Q 35.15625 39.890625 26.703125 39.890625 
Q 22.75 39.890625 18.8125 39.015625 
Q 14.890625 38.140625 10.796875 36.28125 
z
" id="DejaVuSans-35"/>
      </defs>
      <g transform="translate(24.7 102.856362)scale(0.1 -0.1)">
       <use xlink:href="#DejaVuSans-35"/>
       <use x="63.623047" xlink:href="#DejaVuSans-30"/>
      </g>
     </g>
    </g>
    <g id="ytick_7">
     <g id="line2d_21">
      <g>
       <use style="stroke:#000000;stroke-width:0.8;" x="44.425" xlink:href="#mb14d047022" y="74.128571"/>
      </g>
     </g>
     <g id="text_21">
      <!-- 60 -->
      <defs>
       <path d="M 33.015625 40.375 
Q 26.375 40.375 22.484375 35.828125 
Q 18.609375 31.296875 18.609375 23.390625 
Q 18.609375 15.53125 22.484375 10.953125 
Q 26.375 6.390625 33.015625 6.390625 
Q 39.65625 6.390625 43.53125 10.953125 
Q 47.40625 15.53125 47.40625 23.390625 
Q 47.40625 31.296875 43.53125 35.828125 
Q 39.65625 40.375 33.015625 40.375 
z
M 52.59375 71.296875 
L 52.59375 62.3125 
Q 48.875 64.0625 45.09375 64.984375 
Q 41.3125 65.921875 37.59375 65.921875 
Q 27.828125 65.921875 22.671875 59.328125 
Q 17.53125 52.734375 16.796875 39.40625 
Q 19.671875 43.65625 24.015625 45.921875 
Q 28.375 48.1875 33.59375 48.1875 
Q 44.578125 48.1875 50.953125 41.515625 
Q 57.328125 34.859375 57.328125 23.390625 
Q 57.328125 12.15625 50.6875 5.359375 
Q 44.046875 -1.421875 33.015625 -1.421875 
Q 20.359375 -1.421875 13.671875 8.265625 
Q 6.984375 17.96875 6.984375 36.375 
Q 6.984375 53.65625 15.1875 63.9375 
Q 23.390625 74.21875 37.203125 74.21875 
Q 40.921875 74.21875 44.703125 73.484375 
Q 48.484375 72.75 52.59375 71.296875 
z
" id="DejaVuSans-36"/>
      </defs>
      <g transform="translate(24.7 77.92779)scale(0.1 -0.1)">
       <use xlink:href="#DejaVuSans-36"/>
       <use x="63.623047" xlink:href="#DejaVuSans-30"/>
      </g>
     </g>
    </g>
    <g id="ytick_8">
     <g id="line2d_22">
      <g>
       <use style="stroke:#000000;stroke-width:0.8;" x="44.425" xlink:href="#mb14d047022" y="49.2"/>
      </g>
     </g>
     <g id="text_22">
      <!-- 70 -->
      <defs>
       <path d="M 8.203125 72.90625 
L 55.078125 72.90625 
L 55.078125 68.703125 
L 28.609375 0 
L 18.3125 0 
L 43.21875 64.59375 
L 8.203125 64.59375 
z
" id="DejaVuSans-37"/>
      </defs>
      <g transform="translate(24.7 52.999219)scale(0.1 -0.1)">
       <use xlink:href="#DejaVuSans-37"/>
       <use x="63.623047" xlink:href="#DejaVuSans-30"/>
      </g>
     </g>
    </g>
    <g id="ytick_9">
     <g id="line2d_23">
      <g>
       <use style="stroke:#000000;stroke-width:0.8;" x="44.425" xlink:href="#mb14d047022" y="24.271429"/>
      </g>
     </g>
     <g id="text_23">
      <!-- 80 -->
      <defs>
       <path d="M 31.78125 34.625 
Q 24.75 34.625 20.71875 30.859375 
Q 16.703125 27.09375 16.703125 20.515625 
Q 16.703125 13.921875 20.71875 10.15625 
Q 24.75 6.390625 31.78125 6.390625 
Q 38.8125 6.390625 42.859375 10.171875 
Q 46.921875 13.96875 46.921875 20.515625 
Q 46.921875 27.09375 42.890625 30.859375 
Q 38.875 34.625 31.78125 34.625 
z
M 21.921875 38.8125 
Q 15.578125 40.375 12.03125 44.71875 
Q 8.5 49.078125 8.5 55.328125 
Q 8.5 64.0625 14.71875 69.140625 
Q 20.953125 74.21875 31.78125 74.21875 
Q 42.671875 74.21875 48.875 69.140625 
Q 55.078125 64.0625 55.078125 55.328125 
Q 55.078125 49.078125 51.53125 44.71875 
Q 48 40.375 41.703125 38.8125 
Q 48.828125 37.15625 52.796875 32.3125 
Q 56.78125 27.484375 56.78125 20.515625 
Q 56.78125 9.90625 50.3125 4.234375 
Q 43.84375 -1.421875 31.78125 -1.421875 
Q 19.734375 -1.421875 13.25 4.234375 
Q 6.78125 9.90625 6.78125 20.515625 
Q 6.78125 27.484375 10.78125 32.3125 
Q 14.796875 37.15625 21.921875 38.8125 
z
M 18.3125 54.390625 
Q 18.3125 48.734375 21.84375 45.5625 
Q 25.390625 42.390625 31.78125 42.390625 
Q 38.140625 42.390625 41.71875 45.5625 
Q 45.3125 48.734375 45.3125 54.390625 
Q 45.3125 60.0625 41.71875 63.234375 
Q 38.140625 66.40625 31.78125 66.40625 
Q 25.390625 66.40625 21.84375 63.234375 
Q 18.3125 60.0625 18.3125 54.390625 
z
" id="DejaVuSans-38"/>
      </defs>
      <g transform="translate(24.7 28.070647)scale(0.1 -0.1)">
       <use xlink:href="#DejaVuSans-38"/>
       <use x="63.623047" xlink:href="#DejaVuSans-30"/>
      </g>
     </g>
    </g>
    <g id="text_24">
     <!-- Count -->
     <defs>
      <path d="M 30.609375 48.390625 
Q 23.390625 48.390625 19.1875 42.75 
Q 14.984375 37.109375 14.984375 27.296875 
Q 14.984375 17.484375 19.15625 11.84375 
Q 23.34375 6.203125 30.609375 6.203125 
Q 37.796875 6.203125 41.984375 11.859375 
Q 46.1875 17.53125 46.1875 27.296875 
Q 46.1875 37.015625 41.984375 42.703125 
Q 37.796875 48.390625 30.609375 48.390625 
z
M 30.609375 56 
Q 42.328125 56 49.015625 48.375 
Q 55.71875 40.765625 55.71875 27.296875 
Q 55.71875 13.875 49.015625 6.21875 
Q 42.328125 -1.421875 30.609375 -1.421875 
Q 18.84375 -1.421875 12.171875 6.21875 
Q 5.515625 13.875 5.515625 27.296875 
Q 5.515625 40.765625 12.171875 48.375 
Q 18.84375 56 30.609375 56 
z
" id="DejaVuSans-6f"/>
      <path d="M 8.5 21.578125 
L 8.5 54.6875 
L 17.484375 54.6875 
L 17.484375 21.921875 
Q 17.484375 14.15625 20.5 10.265625 
Q 23.53125 6.390625 29.59375 6.390625 
Q 36.859375 6.390625 41.078125 11.03125 
Q 45.3125 15.671875 45.3125 23.6875 
L 45.3125 54.6875 
L 54.296875 54.6875 
L 54.296875 0 
L 45.3125 0 
L 45.3125 8.40625 
Q 42.046875 3.421875 37.71875 1 
Q 33.40625 -1.421875 27.6875 -1.421875 
Q 18.265625 -1.421875 13.375 4.4375 
Q 8.5 10.296875 8.5 21.578125 
z
M 31.109375 56 
z
" id="DejaVuSans-75"/>
      <path d="M 54.890625 33.015625 
L 54.890625 0 
L 45.90625 0 
L 45.90625 32.71875 
Q 45.90625 40.484375 42.875 44.328125 
Q 39.84375 48.1875 33.796875 48.1875 
Q 26.515625 48.1875 22.3125 43.546875 
Q 18.109375 38.921875 18.109375 30.90625 
L 18.109375 0 
L 9.078125 0 
L 9.078125 54.6875 
L 18.109375 54.6875 
L 18.109375 46.1875 
Q 21.34375 51.125 25.703125 53.5625 
Q 30.078125 56 35.796875 56 
Q 45.21875 56 50.046875 50.171875 
Q 54.890625 44.34375 54.890625 33.015625 
z
" id="DejaVuSans-6e"/>
      <path d="M 18.3125 70.21875 
L 18.3125 54.6875 
L 36.8125 54.6875 
L 36.8125 47.703125 
L 18.3125 47.703125 
L 18.3125 18.015625 
Q 18.3125 11.328125 20.140625 9.421875 
Q 21.96875 7.515625 27.59375 7.515625 
L 36.8125 7.515625 
L 36.8125 0 
L 27.59375 0 
Q 17.1875 0 13.234375 3.875 
Q 9.28125 7.765625 9.28125 18.015625 
L 9.28125 47.703125 
L 2.6875 47.703125 
L 2.6875 54.6875 
L 9.28125 54.6875 
L 9.28125 70.21875 
z
" id="DejaVuSans-74"/>
     </defs>
     <g transform="translate(18.620313 133.848437)rotate(-90)scale(0.1 -0.1)">
      <use xlink:href="#DejaVuSans-43"/>
      <use x="69.824219" xlink:href="#DejaVuSans-6f"/>
      <use x="131.005859" xlink:href="#DejaVuSans-75"/>
      <use x="194.384766" xlink:href="#DejaVuSans-6e"/>
      <use x="257.763672" xlink:href="#DejaVuSans-74"/>
     </g>
    </g>
   </g>
   <g id="patch_31">
    <path d="M 44.425 223.7 
L 44.425 14.3 
" style="fill:none;stroke:#000000;stroke-linecap:square;stroke-linejoin:miter;stroke-width:0.8;"/>
   </g>
   <g id="patch_32">
    <path d="M 417.7 223.7 
L 417.7 14.3 
" style="fill:none;stroke:#000000;stroke-linecap:square;stroke-linejoin:miter;stroke-width:0.8;"/>
   </g>
   <g id="patch_33">
    <path d="M 44.425 223.7 
L 417.7 223.7 
" style="fill:none;stroke:#000000;stroke-linecap:square;stroke-linejoin:miter;stroke-width:0.8;"/>
   </g>
   <g id="patch_34">
    <path d="M 44.425 14.3 
L 417.7 14.3 
" style="fill:none;stroke:#000000;stroke-linecap:square;stroke-linejoin:miter;stroke-width:0.8;"/>
   </g>
   <g id="legend_1">
    <g id="patch_35">
     <path d="M 51.425 51.65625 
L 136.792188 51.65625 
Q 138.792188 51.65625 138.792188 49.65625 
L 138.792188 21.3 
Q 138.792188 19.3 136.792188 19.3 
L 51.425 19.3 
Q 49.425 19.3 49.425 21.3 
L 49.425 49.65625 
Q 49.425 51.65625 51.425 51.65625 
z
" style="fill:#ffffff;opacity:0.8;stroke:#cccccc;stroke-linejoin:miter;"/>
    </g>
    <g id="patch_36">
     <path d="M 53.425 30.898437 
L 73.425 30.898437 
L 73.425 23.898437 
L 53.425 23.898437 
z
" style="fill:#1f77b4;"/>
    </g>
    <g id="text_25">
     <!-- Coding -->
     <defs>
      <path d="M 45.40625 46.390625 
L 45.40625 75.984375 
L 54.390625 75.984375 
L 54.390625 0 
L 45.40625 0 
L 45.40625 8.203125 
Q 42.578125 3.328125 38.25 0.953125 
Q 33.9375 -1.421875 27.875 -1.421875 
Q 17.96875 -1.421875 11.734375 6.484375 
Q 5.515625 14.40625 5.515625 27.296875 
Q 5.515625 40.1875 11.734375 48.09375 
Q 17.96875 56 27.875 56 
Q 33.9375 56 38.25 53.625 
Q 42.578125 51.265625 45.40625 46.390625 
z
M 14.796875 27.296875 
Q 14.796875 17.390625 18.875 11.75 
Q 22.953125 6.109375 30.078125 6.109375 
Q 37.203125 6.109375 41.296875 11.75 
Q 45.40625 17.390625 45.40625 27.296875 
Q 45.40625 37.203125 41.296875 42.84375 
Q 37.203125 48.484375 30.078125 48.484375 
Q 22.953125 48.484375 18.875 42.84375 
Q 14.796875 37.203125 14.796875 27.296875 
z
" id="DejaVuSans-64"/>
      <path d="M 9.421875 54.6875 
L 18.40625 54.6875 
L 18.40625 0 
L 9.421875 0 
z
M 9.421875 75.984375 
L 18.40625 75.984375 
L 18.40625 64.59375 
L 9.421875 64.59375 
z
" id="DejaVuSans-69"/>
      <path d="M 45.40625 27.984375 
Q 45.40625 37.75 41.375 43.109375 
Q 37.359375 48.484375 30.078125 48.484375 
Q 22.859375 48.484375 18.828125 43.109375 
Q 14.796875 37.75 14.796875 27.984375 
Q 14.796875 18.265625 18.828125 12.890625 
Q 22.859375 7.515625 30.078125 7.515625 
Q 37.359375 7.515625 41.375 12.890625 
Q 45.40625 18.265625 45.40625 27.984375 
z
M 54.390625 6.78125 
Q 54.390625 -7.171875 48.1875 -13.984375 
Q 42 -20.796875 29.203125 -20.796875 
Q 24.46875 -20.796875 20.265625 -20.09375 
Q 16.0625 -19.390625 12.109375 -17.921875 
L 12.109375 -9.1875 
Q 16.0625 -11.328125 19.921875 -12.34375 
Q 23.78125 -13.375 27.78125 -13.375 
Q 36.625 -13.375 41.015625 -8.765625 
Q 45.40625 -4.15625 45.40625 5.171875 
L 45.40625 9.625 
Q 42.625 4.78125 38.28125 2.390625 
Q 33.9375 0 27.875 0 
Q 17.828125 0 11.671875 7.65625 
Q 5.515625 15.328125 5.515625 27.984375 
Q 5.515625 40.671875 11.671875 48.328125 
Q 17.828125 56 27.875 56 
Q 33.9375 56 38.28125 53.609375 
Q 42.625 51.21875 45.40625 46.390625 
L 45.40625 54.6875 
L 54.390625 54.6875 
z
" id="DejaVuSans-67"/>
     </defs>
     <g transform="translate(81.425 30.898437)scale(0.1 -0.1)">
      <use xlink:href="#DejaVuSans-43"/>
      <use x="69.824219" xlink:href="#DejaVuSans-6f"/>
      <use x="131.005859" xlink:href="#DejaVuSans-64"/>
      <use x="194.482422" xlink:href="#DejaVuSans-69"/>
      <use x="222.265625" xlink:href="#DejaVuSans-6e"/>
      <use x="285.644531" xlink:href="#DejaVuSans-67"/>
     </g>
    </g>
    <g id="patch_37">
     <path d="M 53.425 45.576562 
L 73.425 45.576562 
L 73.425 38.576562 
L 53.425 38.576562 
z
" style="fill:#ff7f0e;"/>
    </g>
    <g id="text_26">
     <!-- Noncoding -->
     <defs>
      <path d="M 48.78125 52.59375 
L 48.78125 44.1875 
Q 44.96875 46.296875 41.140625 47.34375 
Q 37.3125 48.390625 33.40625 48.390625 
Q 24.65625 48.390625 19.8125 42.84375 
Q 14.984375 37.3125 14.984375 27.296875 
Q 14.984375 17.28125 19.8125 11.734375 
Q 24.65625 6.203125 33.40625 6.203125 
Q 37.3125 6.203125 41.140625 7.25 
Q 44.96875 8.296875 48.78125 10.40625 
L 48.78125 2.09375 
Q 45.015625 0.34375 40.984375 -0.53125 
Q 36.96875 -1.421875 32.421875 -1.421875 
Q 20.0625 -1.421875 12.78125 6.34375 
Q 5.515625 14.109375 5.515625 27.296875 
Q 5.515625 40.671875 12.859375 48.328125 
Q 20.21875 56 33.015625 56 
Q 37.15625 56 41.109375 55.140625 
Q 45.0625 54.296875 48.78125 52.59375 
z
" id="DejaVuSans-63"/>
     </defs>
     <g transform="translate(81.425 45.576562)scale(0.1 -0.1)">
      <use xlink:href="#DejaVuSans-4e"/>
      <use x="74.804688" xlink:href="#DejaVuSans-6f"/>
      <use x="135.986328" xlink:href="#DejaVuSans-6e"/>
      <use x="199.365234" xlink:href="#DejaVuSans-63"/>
      <use x="254.345703" xlink:href="#DejaVuSans-6f"/>
      <use x="315.527344" xlink:href="#DejaVuSans-64"/>
      <use x="379.003906" xlink:href="#DejaVuSans-69"/>
      <use x="406.787109" xlink:href="#DejaVuSans-6e"/>
      <use x="470.166016" xlink:href="#DejaVuSans-67"/>
     </g>
    </g>
   </g>
  </g>
 </g>
 <defs>
  <clipPath id="pd42100257e">
   <rect height="209.4" width="373.275" x="44.425" y="14.3"/>
  </clipPath>
 </defs>
</svg>
